<svg xmlns="http://www.w3.org/2000/svg" viewBox="0 0 160.75 172.76"><defs><style>.cls-1{fill:#4d4d4d;}</style></defs><g id="Layer_2" data-name="Layer 2"><g id="icons"><path class="cls-1" d="M159.11,88.39a16.33,16.33,0,0,0-2.3-3.51,6.48,6.48,0,0,0-.52-.56,18.79,18.79,0,0,0-5.25-3.6,3.45,3.45,0,0,1-1.82-2.6l-2.83-44.57a3.12,3.12,0,0,1,1.54-2.67c5.91-3.41,9-10.94,7.47-17.9A16.85,16.85,0,0,0,139.3,0h-.18a16.88,16.88,0,0,0-16.19,12.64,16.57,16.57,0,0,0,8.29,18.58c.33.18.66.34,1,.5a3.46,3.46,0,0,1,1.82,2.61l2.84,44.57a3.12,3.12,0,0,1-1.55,2.67,16.3,16.3,0,0,0-2.49,1.89l-.43.37,0,.06a2.43,2.43,0,0,1-1.71.6,2.81,2.81,0,0,1-.89-.14L98.37,73.68a3.65,3.65,0,0,1-1.87-1.76,16.59,16.59,0,0,0-2.84-7.48A16.27,16.27,0,0,0,79.91,57.3a16.59,16.59,0,0,0-7.9,2c-6.22,3.36-9.83,10.62-8.56,17.29a3.12,3.12,0,0,1-1,2.87L26.77,106.3a3.42,3.42,0,0,1-1.94.56,3,3,0,0,1-1.24-.25,16.25,16.25,0,0,0-6.89-1.54,16.86,16.86,0,0,0-12.33,5.46A16.32,16.32,0,0,0,.05,123a16.76,16.76,0,0,0,9.46,13.72,15.58,15.58,0,0,0,6.76,1.54,18,18,0,0,0,8.91-2.5,3.64,3.64,0,0,1,3.24,0L57,152.63a2.71,2.71,0,0,1,1.35,2.27v.15c0,7.25,3.55,13.28,9.51,16.12a16.59,16.59,0,0,0,7.09,1.59A16.66,16.66,0,0,0,89,147.08a16.59,16.59,0,0,0-13.79-7.58,15.85,15.85,0,0,0-5.66,1A22.69,22.69,0,0,0,66.5,142a3.32,3.32,0,0,1-1.62.38,3.25,3.25,0,0,1-1.61-.38L34.71,125.11a2.68,2.68,0,0,1-1.34-2.27v-.65a16.42,16.42,0,0,0-.2-3.16,3.12,3.12,0,0,1,1-2.86l35.66-26.9a2.28,2.28,0,0,1,1.43-.51,6.85,6.85,0,0,1,2.29.62l.76.28a16.54,16.54,0,0,0,5.71,1l.92,0A17.69,17.69,0,0,0,91.69,86l.06,0,0-.06a2.41,2.41,0,0,1,1.71-.6,2.86,2.86,0,0,1,.89.14l31.4,10.66a3.59,3.59,0,0,1,2.11,2.47,16.28,16.28,0,0,0,16.28,13.92h0a16.42,16.42,0,0,0,5.36-.89,16.62,16.62,0,0,0,10.57-11.37A16.82,16.82,0,0,0,159.11,88.39ZM16.58,129.14a7.59,7.59,0,1,1,7.59-7.59A7.59,7.59,0,0,1,16.58,129.14Zm58.5,19.41a7.59,7.59,0,1,1-7.58,7.59A7.59,7.59,0,0,1,75.08,148.55Zm5.13-67.08a7.59,7.59,0,1,1,7.58-7.58A7.59,7.59,0,0,1,80.21,81.47Zm51.45-64.79a7.58,7.58,0,1,1,7.58,7.58A7.58,7.58,0,0,1,131.66,16.68Zm12.5,86.71a7.59,7.59,0,1,1,7.58-7.59A7.58,7.58,0,0,1,144.16,103.39Z"/></g></g></svg>