<svg xmlns="http://www.w3.org/2000/svg" viewBox="0 0 85.55 203.5"><defs><style>.cls-1{fill:#4d4d4d;}</style></defs><g id="Layer_2" data-name="Layer 2"><g id="icons"><path class="cls-1" d="M42.72,203.5c-1.64-5.43-3.88-10.87-5.81-15.57-2-4.9-3.9-9.52-3.9-11.37A7.6,7.6,0,0,1,35.57,171a8.2,8.2,0,0,0,7.15,3.78A8.2,8.2,0,0,0,49.87,171a7.6,7.6,0,0,1,2.56,5.58c0,1.85-1.9,6.47-3.91,11.37C46.59,192.63,44.36,198.07,42.72,203.5Zm37.87-32.6a37.26,37.26,0,0,0-17.07-13.8c1.25-7.1,3.41-19.49,5.68-33.52C79.9,133.1,92.81,150.19,80.59,170.9Zm-75.74,0c-12.67-21.54,2.39-39.41,12-47.84,2.12,14.09,4.09,26.74,5.23,34A37.1,37.1,0,0,0,4.85,170.9Zm40.72-9.31V126.33l-2.85-5.73-2.85,5.73v35.26H31.54c-2-12.71-15.87-101-15.87-114.16,0-23.64,21.85-43.13,27-47.43C47.9,4.35,69.77,24.09,69.77,47.43c0,25.14-13.73,102.48-15.84,114.16ZM42.72,30A11.89,11.89,0,1,0,54.6,41.88,11.9,11.9,0,0,0,42.72,30Z"/></g></g></svg>