<svg xmlns="http://www.w3.org/2000/svg" viewBox="0 0 159.31 159.14"><defs><style>.cls-1{fill:#4d4d4d;}</style></defs><g id="Layer_2" data-name="Layer 2"><g id="icons"><path class="cls-1" d="M108.12,91.34l34.18,34.19-16.6,16.6L91.55,108a60.49,60.49,0,0,0,9-7.42A59.65,59.65,0,0,0,108.12,91.34Zm48,48-8.79-8.79-16.6,16.61,8.78,8.78a11,11,0,0,0,15.5,0l1.11-1.1A11,11,0,0,0,156.12,139.34ZM95.61,16.41a56,56,0,1,0,0,79.21A56,56,0,0,0,95.61,16.41ZM86,86a42.4,42.4,0,1,1,0-60A42.39,42.39,0,0,1,86,86Z"/></g></g></svg>